# File created by Blade
# Date/Time:  Tue Sep 30 19:11:31 2014
#---------------------------------------------------------
:version 1.10
:name HOM
:units
  mass 1.0
  length 1.000000
  angle deg
:documentation
     Acclaim Skeleton File
:root
   axis xyz
   order TX TY TZ RX RY RZ
   position 0.000000 0.000000 0.000000
   orientation 0 0 0
:bonedata
   begin
      id 1
      name Spine_dum
      direction 0.000000 1.000000 0.000000
      length 7.508948
      axis 0.0 0.0 0.0 xyz
   end
   begin
      id 2
      name LeftUpLeg_dum
      direction 1.000000 0.000000 0.000000
      length 3.000560
      axis 0.0 0.0 0.0 xyz
   end
   begin
      id 3
      name RightUpLeg_dum
      direction -1.000000 0.000000 0.000000
      length 3.000560
      axis 0.0 0.0 0.0 xyz
   end
   begin
      id 4
      name Spine
      direction 0.000000 1.000000 0.000000
      length 0.000000
      axis 0.0 0.0 0.0 xyz
      dof rx ry rz
   end
   begin
      id 5
      name Spine_dum1
      direction 0.000000 1.000000 0.000000
      length 13.861154
      axis 0.0 0.0 0.0 xyz
   end
   begin
      id 6
      name Spine_dum2
      direction 0.000000 1.000000 0.000000
      length 8.204781
      axis 0.0 0.0 0.0 xyz
   end
   begin
      id 7
      name Spine_dum3
      direction 0.000000 1.000000 0.000000
      length 8.204781
      axis 0.0 0.0 0.0 xyz
   end
   begin
      id 8
      name Head
      direction 0.000000 1.000000 0.000000
      length 4.527550
      axis 0.0 0.0 0.0 xyz
      dof rx ry rz
   end
   begin
      id 9
      name LeftShoulder
      direction 1.000000 0.000000 0.000000
      length 6.635956
      axis 0.0 0.0 -90.0 xyz
      dof rx ry rz
   end
   begin
      id 10
      name LeftArm
      direction 1.000000 0.000000 0.000000
      length 10.274218
      axis 0.0 0.0 -90.0 xyz
      dof rx ry rz
   end
   begin
      id 11
      name LeftForeArm
      direction 1.000000 0.000000 0.000000
      length 8.522147
      axis 0.0 0.0 -90.0 xyz
      dof ry rz rx
   end
   begin
      id 12
      name LeftHand
      direction 0.000000 0.000000 0.000000
      length 0.000000
      axis 0.0 0.0 -90.0 xyz
      dof rx ry rz
   end
   begin
      id 13
      name LeftHand_dum1
      direction 0.000000 0.000000 0.000000
      length 0.000000
      axis 0.0 0.0 -90.0 xyz
   end
   begin
      id 14
      name LeftHand_dum2
      direction 1.000000 0.000000 0.000000
      length 3.937000
      axis 0.0 0.0 -90.0 xyz
   end
   begin
      id 15
      name LeftHandThumb1
      direction 0.000000 0.000000 1.000000
      length 3.937000
      axis 0.0 0.0 -90.0 xyz
      dof rx rz ry
   end
   begin
      id 16
      name RightShoulder
      direction -1.000000 0.000000 0.000000
      length 6.635956
      axis 0.0 0.0 90.0 xyz
      dof rx ry rz
   end
   begin
      id 17
      name RightArm
      direction -1.000000 0.000000 0.000000
      length 10.274218
      axis 0.0 0.0 90.0 xyz
      dof rx ry rz
   end
   begin
      id 18
      name RightForeArm
      direction -1.000000 0.000000 0.000000
      length 8.522147
      axis 0.0 0.0 90.0 xyz
      dof ry rz rx
   end
   begin
      id 19
      name RightHand
      direction 0.000000 0.000000 0.000000
      length 0.000000
      axis 0.0 0.0 90.0 xyz
      dof rx ry rz
   end
   begin
      id 20
      name RightHand_dum1
      direction 0.000000 0.000000 0.000000
      length 0.000000
      axis 0.0 0.0 90.0 xyz
   end
   begin
      id 21
      name RightHand_dum2
      direction -1.000000 0.000000 0.000000
      length 3.937000
      axis 0.0 0.0 90.0 xyz
   end
   begin
      id 22
      name RightHandThumb1
      direction 0.000000 0.000000 1.000000
      length 3.937000
      axis 0.0 0.0 90.0 xyz
      dof rx rz ry
   end
   begin
      id 23
      name LeftUpLeg
      direction 0.000000 -1.000000 0.000000
      length 16.490845
      axis 0.0 0.0 0.0 xyz
      dof rx ry rz
   end
   begin
      id 24
      name LeftLeg
      direction 0.000000 -1.000000 0.000000
      length 14.556576
      axis 0.0 0.0 0.0 xyz
      dof rx ry rz
   end
   begin
      id 25
      name LeftFoot
      direction 0.000000 -0.258819 0.965926
      length 4.831116
      axis 15.0 0.0 0.0 xyz
      dof rx ry rz
   end
   begin
      id 26
      name LeftToeBase
      direction 0.000000 0.000000 1.000000
      length 2.952750
      axis 0.0 0.0 0.0 xyz
      dof rx ry rz
   end
   begin
      id 27
      name RightUpLeg
      direction 0.000000 -1.000000 0.000000
      length 16.490845
      axis 0.0 0.0 0.0 xyz
      dof rx ry rz
   end
   begin
      id 28
      name RightLeg
      direction 0.000000 -1.000000 0.000000
      length 14.556576
      axis 0.0 0.0 0.0 xyz
      dof rx ry rz
   end
   begin
      id 29
      name RightFoot
      direction 0.000000 -0.258819 0.965926
      length 4.831116
      axis 15.0 0.0 0.0 xyz
      dof rx ry rz
   end
   begin
      id 30
      name RightToeBase
      direction 0.000000 0.000000 1.000000
      length 2.952750
      axis 0.0 0.0 0.0 xyz
      dof rx ry rz
   end
:hierarchy
   begin
      root Spine_dum LeftUpLeg_dum RightUpLeg_dum
      Spine_dum Spine
      LeftUpLeg_dum LeftUpLeg
      RightUpLeg_dum RightUpLeg
      Spine Spine_dum1 Spine_dum2 Spine_dum3
      Spine_dum1 Head
      Spine_dum2 LeftShoulder
      Spine_dum3 RightShoulder
      LeftShoulder LeftArm
      LeftArm LeftForeArm
      LeftForeArm LeftHand
      LeftHand LeftHand_dum1 LeftHand_dum2
      LeftHand_dum1 LeftHandThumb1
      RightShoulder RightArm
      RightArm RightForeArm
      RightForeArm RightHand
      RightHand RightHand_dum1 RightHand_dum2
      RightHand_dum1 RightHandThumb1
      LeftUpLeg LeftLeg
      LeftLeg LeftFoot
      LeftFoot LeftToeBase
      RightUpLeg RightLeg
      RightLeg RightFoot
      RightFoot RightToeBase
   end

# File created by Blade
# Date/Time:  Thu Sep 25 15:31:15 2014
# Frame Rate: 120.000 fps
#------------------------------------------------------
:FULLY-SPECIFIED
:DEGREES
99
root 0.626762 32.777795 -3.751868 10.021662 -9.698104 -2.461646
Spine -5.755371 3.740516 3.414021
Head 1.631060 -31.901576 10.406347
LeftShoulder -12.379123 23.404124 15.562785
LeftArm 23.723604 -6.353399 -62.838175
LeftForeArm 4.380008 0.000000 16.683988
LeftHand -30.772299 -0.000000 7.023067
LeftHandThumb1 -26.253704 0.000000 33.147579
RightShoulder -18.832516 10.718399 -28.284993
RightArm -11.975755 3.487530 60.818852
RightForeArm -23.960977 -0.000000 17.923962
RightHand -8.671347 -0.000000 -0.583870
RightHandThumb1 -24.326973 -0.000000 -32.862282
LeftUpLeg -18.979014 7.825845 3.672971
LeftLeg 34.121924 -0.000000 -0.000000
LeftFoot -18.769195 11.458316 -28.815763
LeftToeBase -7.789787 -0.000000 0.000000
RightUpLeg -9.753366 5.847247 2.645398
RightLeg 9.512975 -0.000000 -0.000000
RightFoot -12.121148 -2.272249 -8.011132
RightToeBase -1.160488 -0.000000 0.000000
100
root 0.640570 32.771238 -3.735027 9.876961 -10.116163 -2.405776
Spine -5.522935 3.717992 3.441613
Head 1.836878 -32.682528 10.337830
LeftShoulder -12.323100 23.205433 15.438345
LeftArm 23.563049 -5.810510 -63.517810
LeftForeArm 4.707089 -0.000000 16.606963
LeftHand -30.441567 -0.000000 6.888066
LeftHandThumb1 -26.253704 0.000000 33.147579
RightShoulder -18.923778 10.660011 -28.204711
RightArm -12.135832 3.369455 61.528183
RightForeArm -23.697317 -0.000000 17.957315
RightHand -8.693684 -0.000000 -0.784582
RightHandThumb1 -24.326973 -0.000000 -32.862282
LeftUpLeg -19.704418 7.718641 3.676294
LeftLeg 35.982152 -0.000000 -0.000000
LeftFoot -18.075228 11.541415 -29.122828
LeftToeBase -8.783052 -0.000000 0.000000
RightUpLeg -9.878545 5.190714 2.588127
RightLeg 10.068669 -0.000000 -0.000000
RightFoot -12.491903 -1.249377 -8.190447
RightToeBase -1.320848 -0.000000 0.000000
101
root 0.657754 32.766617 -3.718488 9.786427 -10.578441 -2.354176
Spine -5.388123 3.708393 3.479813
Head 2.162451 -33.415293 10.143794
LeftShoulder -12.256895 23.070897 15.269567
LeftArm 23.372679 -5.169699 -64.080452
LeftForeArm 4.839630 -0.000000 16.571433
LeftHand -30.260697 -0.000000 6.615892
LeftHandThumb1 -26.253704 0.000000 33.147579
RightShoulder -18.992609 10.537630 -28.134946
RightArm -12.236870 3.719029 62.221616
RightForeArm -23.934672 -0.000000 17.855233
RightHand -8.276299 -0.000000 -1.196364
RightHandThumb1 -24.326973 -0.000000 -32.862282
LeftUpLeg -20.455516 7.788521 3.677157
LeftLeg 37.754912 -0.000000 -0.000000
LeftFoot -17.208304 11.488685 -29.304998
LeftToeBase -9.781324 -0.000000 0.000000
RightUpLeg -9.886936 5.111154 2.476672
RightLeg 10.229909 -0.000000 -0.000000
RightFoot -12.687022 -0.709927 -8.301869
RightToeBase -1.169769 -0.000000 0.000000
102
root 0.673011 32.763325 -3.704858 9.719309 -11.079983 -2.345367
Spine -5.253574 3.713647 3.562664
Head 2.472191 -34.071837 9.933029
LeftShoulder -12.235081 23.037643 15.047237
LeftArm 23.333071 -4.498343 -64.599102
LeftForeArm 4.845324 0.000000 16.425298
LeftHand -30.180677 0.000000 6.615654
LeftHandThumb1 -26.253704 0.000000 33.147579
RightShoulder -19.003485 10.511748 -28.101162
RightArm -12.500155 4.223688 62.888340
RightForeArm -24.210213 -0.000000 17.936254
RightHand -8.272169 -0.000000 -1.160683
RightHandThumb1 -24.326973 -0.000000 -32.862282
LeftUpLeg -21.259931 7.801543 3.730027
LeftLeg 39.583755 -0.000000 -0.000000
LeftFoot -16.304607 11.494107 -29.546542
LeftToeBase -10.645529 -0.000000 0.000000
RightUpLeg -9.879286 5.322115 2.392943
RightLeg 10.332937 -0.000000 -0.000000
RightFoot -12.759639 -0.530375 -8.436324
RightToeBase -1.099329 -0.000000 0.000000
103
root 0.693047 32.758990 -3.693753 9.675557 -11.584224 -2.335524
Spine -5.127020 3.705932 3.643942
Head 2.707543 -34.760638 9.783633
LeftShoulder -12.250858 22.981224 14.822560
LeftArm 23.280069 -3.734743 -65.079524
LeftForeArm 4.745485 -0.000000 16.285965
LeftHand -30.146023 -0.000000 6.722369
LeftHandThumb1 -26.253704 0.000000 33.147579
RightShoulder -19.042541 10.471338 -28.044737
RightArm -12.838630 3.389772 63.660781
RightForeArm -23.279880 -0.000000 18.212406
RightHand -8.252213 0.000000 -1.665843
RightHandThumb1 -24.326973 -0.000000 -32.862282
LeftUpLeg -22.079416 7.781631 3.778467
LeftLeg 41.354459 -0.000000 -0.000000
LeftFoot -15.505452 11.592018 -29.423471
LeftToeBase -10.631730 -0.000000 0.000000
RightUpLeg -9.918653 5.511273 2.295836
RightLeg 10.467740 -0.000000 -0.000000
RightFoot -12.871212 -0.258960 -8.465461
RightToeBase -0.889115 -0.000000 0.000000
104
root 0.713962 32.752775 -3.676408 9.601475 -12.099730 -2.322887
Spine -4.979717 3.684674 3.719056
Head 2.945579 -35.419016 9.627205
LeftShoulder -12.284997 22.843586 14.642733
LeftArm 23.187164 -2.890700 -65.557287
LeftForeArm 4.412758 -0.000000 16.071627
LeftHand -30.071959 -0.000000 6.838068
LeftHandThumb1 -26.253704 0.000000 33.147579
RightShoulder -19.081460 10.396604 -27.973216
RightArm -13.048660 3.087145 64.358689
RightForeArm -22.780534 0.000000 18.306985
RightHand -8.538005 -0.000000 -1.860041
RightHandThumb1 -24.326973 -0.000000 -32.862282
LeftUpLeg -22.832492 7.749316 3.842445
LeftLeg 43.083516 -0.000000 -0.000000
LeftFoot -14.834007 11.504413 -29.467053
LeftToeBase -10.021057 -0.000000 0.000000
RightUpLeg -9.918448 5.618144 2.208296
RightLeg 10.592689 -0.000000 -0.000000
RightFoot -12.977854 0.067410 -8.572251
RightToeBase -0.813051 -0.000000 0.000000
105
root 0.737531 32.747863 -3.664843 9.572409 -12.662801 -2.324668
Spine -4.865900 3.685342 3.792291
Head 3.148157 -35.907786 9.569256
LeftShoulder -12.301042 22.791415 14.473629
LeftArm 23.101849 -2.119076 -66.081565
LeftForeArm 4.073184 -0.000000 15.939240
LeftHand -30.116412 0.000000 7.058645
LeftHandThumb1 -26.253704 0.000000 33.147579
RightShoulder -19.117756 10.361955 -27.768500
RightArm -13.157683 3.148208 64.839192
RightForeArm -22.724602 0.000000 18.320176
RightHand -7.925773 -0.000000 -1.643622
RightHandThumb1 -24.326973 -0.000000 -32.862282
LeftUpLeg -23.609249 7.831887 3.907518
LeftLeg 44.734395 -0.000000 -0.000000
LeftFoot -14.166897 11.577078 -29.016436
LeftToeBase -9.195646 -0.000000 0.000000
RightUpLeg -9.996206 5.816944 2.104314
RightLeg 10.784683 -0.000000 -0.000000
RightFoot -13.070861 0.271226 -8.697326
RightToeBase -1.158761 -0.000000 0.000000
